<?xml version="1.0" encoding="UTF-8"?><svg id="_レイヤー_2" xmlns="http://www.w3.org/2000/svg" viewBox="0 0 76.41 76.18"><defs><style>.cls-1{fill:#ffa863;}.cls-2{fill:#333132;}</style></defs><circle class="cls-1" cx="37.87" cy="38.22" r="19"/><path class="cls-2" d="m76.41,38.21c0,20.86-17.11,37.97-38.21,37.97-10.31,0-19.92-3.75-26.96-11.02C3.98,57.89,0,48.28,0,38.21,0,17.11,17.11,0,38.21,0s38.21,17.11,38.21,38.21Zm-21.09,0c0-9.38-7.74-17.11-17.11-17.11s-17.11,7.73-17.11,17.11c0,4.45,1.88,8.67,4.92,11.95,3.28,3.28,7.5,4.92,12.19,4.92,9.38,0,17.11-7.5,17.11-16.88Z"/></svg>