<?xml version="1.0" encoding="UTF-8"?><svg id="_レイヤー_2" xmlns="http://www.w3.org/2000/svg" viewBox="0 0 263.19 101.89"><defs><style>.cls-1{fill:#ffa863;}.cls-2{fill:#333132;}</style></defs><circle class="cls-1" cx="135.59" cy="63" r="19"/><path class="cls-2" d="m0,91.89v-53.16C0,17.51,19.92,0,44.07,0c24.38.21,44.07,17.51,44.07,38.73v52.95c0,5.15-4.69,9.27-10.55,9.27s-10.55-4.12-10.55-9.27v-52.95c0-11.13-10.31-19.99-22.97-20.19-12.66,0-22.97,9.07-22.97,20.19v52.95c0,5.15-4.69,9.27-10.55,9.27S0,96.84,0,91.89Z"/><path class="cls-2" d="m174.14,62.98c0,20.86-17.11,37.97-38.21,37.97-10.31,0-19.92-3.75-26.96-11.02-7.27-7.27-11.25-16.88-11.25-26.96,0-21.09,17.11-38.21,38.21-38.21s38.21,17.11,38.21,38.21Zm-21.09,0c0-9.38-7.74-17.11-17.11-17.11s-17.11,7.73-17.11,17.11c0,4.45,1.88,8.67,4.92,11.95,3.28,3.28,7.5,4.92,12.19,4.92,9.38,0,17.11-7.5,17.11-16.88Z"/><path class="cls-2" d="m206.59,15.4c0,6.33-5.16,11.72-11.72,11.72s-11.72-5.39-11.72-11.72,5.39-11.72,11.72-11.72,11.72,5.16,11.72,11.72Z"/><path class="cls-2" d="m205.42,40.99v49.97c0,5.55-4.69,9.99-10.55,9.99s-10.55-4.44-10.55-9.99v-49.97c0-5.33,4.69-9.99,10.55-9.99s10.55,4.66,10.55,9.99Z"/><path class="cls-2" d="m263.19,35.45c0,5.81-4.69,10.45-10.55,10.45-8.2,0-14.77,6.5-14.77,14.63v30.9c0,5.81-4.69,10.45-10.55,10.45s-10.55-4.65-10.55-10.45v-30.9c0-19.75,16.17-35.54,35.86-35.54,5.86,0,10.55,4.65,10.55,10.45Z"/><polygon class="cls-2" points="182.69 .97 183.88 11.56 192.46 5.24 182.69 .97"/><polygon class="cls-2" points="207.06 .97 205.87 11.56 197.29 5.24 207.06 .97"/></svg>